<svg width="141" height="25" viewBox="0 0 141 25" fill="none" xmlns="http://www.w3.org/2000/svg">
<path d="M23.6111 11.6528C23.8692 11.4605 24.0606 11.1923 24.1586 10.8857C24.2566 10.5791 24.2561 10.2496 24.1573 9.94327C24.0585 9.63696 23.8664 9.36925 23.6078 9.17767C23.3491 8.98609 23.0371 8.88026 22.7152 8.875L16.4652 8.63889C16.4345 8.63677 16.4051 8.62581 16.3804 8.60732C16.3558 8.58884 16.337 8.56363 16.3264 8.53472L14.1666 2.70139C14.0581 2.40461 13.861 2.14835 13.6021 1.96729C13.3431 1.78623 13.0347 1.68913 12.7187 1.68913C12.4027 1.68913 12.0944 1.78623 11.8354 1.96729C11.5764 2.14835 11.3793 2.40461 11.2708 2.70139L9.11803 8.55556C9.10739 8.58446 9.08861 8.60968 9.06397 8.62816C9.03933 8.64664 9.00987 8.6576 8.97914 8.65972L2.72914 8.89583C2.40734 8.90109 2.09525 9.00693 1.83663 9.19851C1.57802 9.39008 1.38585 9.6578 1.28706 9.96411C1.18828 10.2704 1.18783 10.6 1.28579 10.9065C1.38375 11.2131 1.57521 11.4813 1.8333 11.6736L6.73608 15.5278C6.76062 15.5471 6.77896 15.5732 6.78883 15.6028C6.79871 15.6324 6.79968 15.6643 6.79164 15.6944L5.10414 21.6736C5.01669 21.9781 5.02516 22.3021 5.1284 22.6016C5.23164 22.9011 5.42463 23.1615 5.68112 23.3474C5.9376 23.5333 6.24514 23.6357 6.56188 23.6407C6.87863 23.6456 7.1892 23.5528 7.45136 23.375L12.6319 19.9028C12.6574 19.8852 12.6877 19.8757 12.7187 19.8757C12.7497 19.8757 12.78 19.8852 12.8055 19.9028L17.9861 23.375C18.2447 23.5589 18.5542 23.6577 18.8715 23.6577C19.1888 23.6577 19.4983 23.5589 19.7569 23.375C20.0135 23.1908 20.2066 22.9317 20.3099 22.6332C20.4131 22.3348 20.4213 22.0116 20.3333 21.7083L18.6319 15.7083C18.6229 15.6782 18.6234 15.646 18.6333 15.6162C18.6433 15.5864 18.6622 15.5604 18.6875 15.5417L23.6111 11.6528Z" fill="#FF0000"/>
<path d="M52.6111 11.6528C52.8692 11.4605 53.0606 11.1923 53.1586 10.8857C53.2566 10.5791 53.2561 10.2496 53.1573 9.94327C53.0585 9.63696 52.8664 9.36925 52.6078 9.17767C52.3491 8.98609 52.0371 8.88026 51.7152 8.875L45.4652 8.63889C45.4345 8.63677 45.4051 8.62581 45.3804 8.60732C45.3558 8.58884 45.337 8.56363 45.3264 8.53472L43.1666 2.70139C43.0581 2.40461 42.861 2.14835 42.6021 1.96729C42.3431 1.78623 42.0347 1.68913 41.7187 1.68913C41.4027 1.68913 41.0944 1.78623 40.8354 1.96729C40.5764 2.14835 40.3793 2.40461 40.2708 2.70139L38.118 8.55556C38.1074 8.58446 38.0886 8.60968 38.064 8.62816C38.0393 8.64664 38.0099 8.6576 37.9791 8.65972L31.7291 8.89583C31.4073 8.90109 31.0952 9.00693 30.8366 9.19851C30.578 9.39008 30.3858 9.6578 30.2871 9.96411C30.1883 10.2704 30.1878 10.6 30.2858 10.9065C30.3838 11.2131 30.5752 11.4813 30.8333 11.6736L35.7361 15.5278C35.7606 15.5471 35.779 15.5732 35.7888 15.6028C35.7987 15.6324 35.7997 15.6643 35.7916 15.6944L34.1041 21.6736C34.0167 21.9781 34.0252 22.3021 34.1284 22.6016C34.2316 22.9011 34.4246 23.1615 34.6811 23.3474C34.9376 23.5333 35.2451 23.6357 35.5619 23.6407C35.8786 23.6456 36.1892 23.5528 36.4514 23.375L41.6319 19.9028C41.6574 19.8852 41.6877 19.8757 41.7187 19.8757C41.7497 19.8757 41.78 19.8852 41.8055 19.9028L46.9861 23.375C47.2447 23.5589 47.5542 23.6577 47.8715 23.6577C48.1888 23.6577 48.4983 23.5589 48.7569 23.375C49.0135 23.1908 49.2066 22.9317 49.3099 22.6332C49.4131 22.3348 49.4213 22.0116 49.3333 21.7083L47.6319 15.7083C47.6229 15.6782 47.6234 15.646 47.6333 15.6162C47.6433 15.5864 47.6622 15.5604 47.6875 15.5417L52.6111 11.6528Z" fill="#FF0000"/>
<path d="M81.6111 11.6528C81.8692 11.4605 82.0606 11.1923 82.1586 10.8857C82.2566 10.5791 82.2561 10.2496 82.1573 9.94327C82.0585 9.63696 81.8664 9.36925 81.6078 9.17767C81.3491 8.98609 81.0371 8.88026 80.7152 8.875L74.4652 8.63889C74.4345 8.63677 74.4051 8.62581 74.3804 8.60732C74.3558 8.58884 74.337 8.56363 74.3264 8.53472L72.1666 2.70139C72.0581 2.40461 71.861 2.14835 71.6021 1.96729C71.3431 1.78623 71.0347 1.68913 70.7187 1.68913C70.4027 1.68913 70.0944 1.78623 69.8354 1.96729C69.5764 2.14835 69.3793 2.40461 69.2708 2.70139L67.118 8.55556C67.1074 8.58446 67.0886 8.60968 67.064 8.62816C67.0393 8.64664 67.0099 8.6576 66.9791 8.65972L60.7291 8.89583C60.4073 8.90109 60.0952 9.00693 59.8366 9.19851C59.578 9.39008 59.3858 9.6578 59.2871 9.96411C59.1883 10.2704 59.1878 10.6 59.2858 10.9065C59.3838 11.2131 59.5752 11.4813 59.8333 11.6736L64.7361 15.5278C64.7606 15.5471 64.779 15.5732 64.7888 15.6028C64.7987 15.6324 64.7997 15.6643 64.7916 15.6944L63.1041 21.6736C63.0167 21.9781 63.0252 22.3021 63.1284 22.6016C63.2316 22.9011 63.4246 23.1615 63.6811 23.3474C63.9376 23.5333 64.2451 23.6357 64.5619 23.6407C64.8786 23.6456 65.1892 23.5528 65.4514 23.375L70.6319 19.9028C70.6574 19.8852 70.6877 19.8757 70.7187 19.8757C70.7497 19.8757 70.78 19.8852 70.8055 19.9028L75.9861 23.375C76.2447 23.5589 76.5542 23.6577 76.8715 23.6577C77.1888 23.6577 77.4983 23.5589 77.7569 23.375C78.0135 23.1908 78.2066 22.9317 78.3099 22.6332C78.4131 22.3348 78.4213 22.0116 78.3333 21.7083L76.6319 15.7083C76.6229 15.6782 76.6234 15.646 76.6333 15.6162C76.6433 15.5864 76.6622 15.5604 76.6875 15.5417L81.6111 11.6528Z" fill="#FF0000"/>
<path d="M110.611 11.6528C110.869 11.4605 111.061 11.1923 111.159 10.8857C111.257 10.5791 111.256 10.2496 111.157 9.94327C111.059 9.63696 110.866 9.36925 110.608 9.17767C110.349 8.98609 110.037 8.88026 109.715 8.875L103.465 8.63889C103.435 8.63677 103.405 8.62581 103.38 8.60732C103.356 8.58884 103.337 8.56363 103.326 8.53472L101.167 2.70139C101.058 2.40461 100.861 2.14835 100.602 1.96729C100.343 1.78623 100.035 1.68913 99.7187 1.68913C99.4027 1.68913 99.0944 1.78623 98.8354 1.96729C98.5764 2.14835 98.3793 2.40461 98.2708 2.70139L96.118 8.55556C96.1074 8.58446 96.0886 8.60968 96.064 8.62816C96.0393 8.64664 96.0099 8.6576 95.9791 8.65972L89.7291 8.89583C89.4073 8.90109 89.0952 9.00693 88.8366 9.19851C88.578 9.39008 88.3858 9.6578 88.2871 9.96411C88.1883 10.2704 88.1878 10.6 88.2858 10.9065C88.3838 11.2131 88.5752 11.4813 88.8333 11.6736L93.7361 15.5278C93.7606 15.5471 93.779 15.5732 93.7888 15.6028C93.7987 15.6324 93.7997 15.6643 93.7916 15.6944L92.1041 21.6736C92.0167 21.9781 92.0252 22.3021 92.1284 22.6016C92.2316 22.9011 92.4246 23.1615 92.6811 23.3474C92.9376 23.5333 93.2451 23.6357 93.5619 23.6407C93.8786 23.6456 94.1892 23.5528 94.4514 23.375L99.6319 19.9028C99.6574 19.8852 99.6877 19.8757 99.7187 19.8757C99.7497 19.8757 99.78 19.8852 99.8055 19.9028L104.986 23.375C105.245 23.5589 105.554 23.6577 105.871 23.6577C106.189 23.6577 106.498 23.5589 106.757 23.375C107.013 23.1908 107.207 22.9317 107.31 22.6332C107.413 22.3348 107.421 22.0116 107.333 21.7083L105.632 15.7083C105.623 15.6782 105.623 15.646 105.633 15.6162C105.643 15.5864 105.662 15.5604 105.687 15.5417L110.611 11.6528Z" fill="#4A4A4A"/>
<path d="M139.611 11.6528C139.869 11.4605 140.061 11.1923 140.159 10.8857C140.257 10.5791 140.256 10.2496 140.157 9.94327C140.059 9.63696 139.866 9.36925 139.608 9.17767C139.349 8.98609 139.037 8.88026 138.715 8.875L132.465 8.63889C132.435 8.63677 132.405 8.62581 132.38 8.60732C132.356 8.58884 132.337 8.56363 132.326 8.53472L130.167 2.70139C130.058 2.40461 129.861 2.14835 129.602 1.96729C129.343 1.78623 129.035 1.68913 128.719 1.68913C128.403 1.68913 128.094 1.78623 127.835 1.96729C127.576 2.14835 127.379 2.40461 127.271 2.70139L125.118 8.55556C125.107 8.58446 125.089 8.60968 125.064 8.62816C125.039 8.64664 125.01 8.6576 124.979 8.65972L118.729 8.89583C118.407 8.90109 118.095 9.00693 117.837 9.19851C117.578 9.39008 117.386 9.6578 117.287 9.96411C117.188 10.2704 117.188 10.6 117.286 10.9065C117.384 11.2131 117.575 11.4813 117.833 11.6736L122.736 15.5278C122.761 15.5471 122.779 15.5732 122.789 15.6028C122.799 15.6324 122.8 15.6643 122.792 15.6944L121.104 21.6736C121.017 21.9781 121.025 22.3021 121.128 22.6016C121.232 22.9011 121.425 23.1615 121.681 23.3474C121.938 23.5333 122.245 23.6357 122.562 23.6407C122.879 23.6456 123.189 23.5528 123.451 23.375L128.632 19.9028C128.657 19.8852 128.688 19.8757 128.719 19.8757C128.75 19.8757 128.78 19.8852 128.806 19.9028L133.986 23.375C134.245 23.5589 134.554 23.6577 134.871 23.6577C135.189 23.6577 135.498 23.5589 135.757 23.375C136.013 23.1908 136.207 22.9317 136.31 22.6332C136.413 22.3348 136.421 22.0116 136.333 21.7083L134.632 15.7083C134.623 15.6782 134.623 15.646 134.633 15.6162C134.643 15.5864 134.662 15.5604 134.687 15.5417L139.611 11.6528Z" fill="#4A4A4A"/>
</svg>
